<?xml version="1.0" standalone="no"?>
<!DOCTYPE svg PUBLIC "-//W3C//DTD SVG 20010904//EN"
 "http://www.w3.org/TR/2001/REC-SVG-20010904/DTD/svg10.dtd">
<svg version="1.0" xmlns="http://www.w3.org/2000/svg"
 width="256.000000pt" height="256.000000pt" viewBox="0 0 256.000000 256.000000"
 preserveAspectRatio="xMidYMid meet">
<metadata>
Created by potrace 1.14, written by Peter Selinger 2001-2017
</metadata>
<g transform="translate(0.000000,256.000000) scale(0.100000,-0.100000)"
fill="#000000" stroke="none">
<path d="M353 2188 c3 -7 141 -298 306 -646 l301 -634 0 -334 0 -334 50 0 49
0 3 332 3 333 306 645 307 645 -40 3 c-22 2 -46 1 -52 -1 -7 -3 -137 -269
-291 -592 -195 -411 -282 -584 -288 -574 -5 8 -131 273 -281 589 l-273 575
-53 3 c-40 2 -51 0 -47 -10z"/>
<path d="M523 2188 c21 -56 511 -1067 515 -1064 2 3 14 27 27 54 l23 49 -233
484 -233 484 -52 3 c-40 2 -51 0 -47 -10z"/>
<path d="M694 2185 c21 -55 421 -875 427 -875 3 0 16 24 28 53 l22 53 -191
389 -191 390 -51 3 c-43 3 -50 1 -44 -13z"/>
<path d="M860 2191 c0 -4 55 -118 121 -252 67 -134 144 -291 171 -349 l50
-105 23 45 c13 25 24 53 25 62 0 10 -66 151 -147 313 l-148 295 -47 0 c-27 0
-48 -4 -48 -9z"/>
<path d="M1438 1550 l-308 -649 0 -331 0 -330 50 0 50 0 0 328 0 329 305 643
c168 353 308 647 311 651 3 5 -19 9 -48 9 l-53 0 -307 -650z"/>
<path d="M1607 1552 l-307 -648 0 -332 0 -332 50 0 50 0 0 329 0 330 305 642
c168 354 305 647 305 651 0 4 -21 8 -48 8 l-47 0 -308 -648z"/>
<path d="M1777 1553 l-307 -646 0 -334 0 -333 50 0 50 0 0 331 0 330 305 643
c168 354 305 646 305 650 0 3 -22 6 -48 6 l-48 0 -307 -647z"/>
</g>
</svg>
